Coordinates
version=1
nRows=12
nColumns=24
inDegrees=yes

Units are S.I. units (second, meters, Newtons, ...)
Angles are in degrees.

endheader
time	pelvis_tilt	pelvis_list	pelvis_rotation	pelvis_tx	pelvis_ty	pelvis_tz	hip_flexion_r	hip_adduction_r	hip_rotation_r	knee_angle_r	ankle_angle_r	subtalar_angle_r	mtp_angle_r	hip_flexion_l	hip_adduction_l	hip_rotation_l	knee_angle_l	ankle_angle_l	subtalar_angle_l	mtp_angle_l	lumbar_extension	lumbar_bending	lumbar_rotation
      1.42066667	     -1.10531682	     -1.84918577	    -13.26740735	      0.96561652	      0.98429069	      0.32108524	    -18.74467569	      0.18500647	     10.40388779	     -7.91347080	     11.45700487	     -6.23199623	     16.61793306	     24.99187461	     -7.43008271	    -13.96113485	      1.34622072	      6.88332263	     -7.04801457	      5.66846893	     -1.74347060	      1.96132731	     10.83299945
      1.42483333	     -1.10202039	     -1.76137864	    -13.33208447	      0.97166577	      0.98375750	      0.32051005	    -18.89374967	     -0.01972205	     10.37966342	     -8.25449187	     11.28311304	     -6.22328257	     16.62814288	     25.00162640	     -7.35045804	    -13.92677051	      0.92700920	      6.95892930	     -7.16151577	      5.67320433	     -1.71882120	      1.82752405	     10.89092033
      1.42900000	     -1.09322173	     -1.65921671	    -13.38896252	      0.97779020	      0.98324947	      0.31989503	    -19.02893993	     -0.24118313	     10.28308089	     -8.63245858	     11.12856991	     -6.09226821	     16.71213791	     25.00715066	     -7.24597101	    -13.88129104	      0.47366136	      7.01329676	     -7.26617898	      5.70578783	     -1.66857365	      1.66858935	     11.08786567
      1.43316667	     -1.08155483	     -1.54235055	    -13.44651199	      0.98395501	      0.98278332	      0.31927717	    -19.16265836	     -0.47358763	     10.24396225	     -9.01416675	     10.91718778	     -6.10882472	     16.74111666	     25.01237538	     -7.12276739	    -13.84070407	     -0.01668416	      7.01152633	     -7.39387220	      5.71893368	     -1.61663600	      1.49339125	     11.11869548
      1.43733333	     -1.07646004	     -1.39617059	    -13.48155038	      0.99019865	      0.98232866	      0.31861559	    -19.27919961	     -0.72799926	     10.16352134	     -9.40841117	     10.68231849	     -6.08338616	     16.80659083	     25.02296394	     -6.95559450	    -13.76816355	     -0.52446591	      6.96923410	     -7.51398252	      5.74736249	     -1.55172974	      1.28309177	     11.19167718
      1.44150000	     -1.07192187	     -1.24462790	    -13.51236155	      0.99647197	      0.98189413	      0.31792015	    -19.37678081	     -0.98548501	     10.06730053	     -9.83768871	     10.44094096	     -6.05281543	     16.91396753	     25.05018115	     -6.77886779	    -13.68770352	     -1.08294534	      6.87829296	     -7.66318000	      5.79419319	     -1.47777527	      1.07628661	     11.27485550
      1.44566667	     -1.00181937	     -1.08205768	    -13.51943818	      1.00278943	      0.98157555	      0.31715972	    -19.53431653	     -1.26495563	      9.90726943	    -10.27743030	     10.15718966	     -6.05547456	     19.80717401	     24.97082380	     -6.54390094	    -13.46544091	     -1.55886087	      6.59702025	     -8.10695952	      7.05373078	     -1.48373117	      0.84732903	     11.26986237
      1.44983333	     -1.02998568	     -0.89137888	    -13.55133421	      1.00917199	      0.98116563	      0.31644570	    -19.56780972	     -1.54869027	      9.83241989	    -10.74833487	      9.83953104	     -6.08732953	     19.84621892	     25.05052022	     -6.33427912	    -13.46673854	     -2.18404330	      6.47137278	     -8.10841211	      7.07248900	     -1.34593143	      0.60064162	     11.36630055
      1.45400000	     -1.02708921	     -0.70529339	    -13.55196127	      1.01557531	      0.98081499	      0.31565901	    -19.62296908	     -1.82398689	      9.71232781	    -11.24777550	      9.51525501	     -6.11939870	     19.89869551	     25.11176561	     -6.10575439	    -13.42468001	     -2.83737551	      6.27668085	     -8.16447314	      7.09866848	     -1.25279027	      0.36087389	     11.43142158
      1.45816667	     -1.00809187	     -0.50828452	    -13.54529536	      1.02202802	      0.98052159	      0.31484502	    -19.67967144	     -2.11005487	      9.57206280	    -11.77373803	      9.16350901	     -6.17726286	     19.94179573	     25.15116682	     -5.85473128	    -13.38655865	     -3.48440992	      6.02719026	     -8.23500737	      7.11881015	     -1.16039932	      0.11341001	     11.47485162
      1.46233333	     -1.02246285	     -0.28308092	    -13.52278063	      1.02851359	      0.98020530	      0.31399711	    -19.68269759	     -2.40939604	      9.41875566	    -12.32384261	      8.77162920	     -6.19447685	     20.03268989	     25.23631388	     -5.57254823	    -13.29813684	     -4.14509986	      5.73410331	     -8.30613658	      7.16086774	     -1.03912274	     -0.17740726	     11.52880254
      1.46650000	     -1.00007769	     -0.06806975	    -13.49498132	      1.03501343	      0.97997951	      0.31312014	    -19.70310532	     -2.70252549	      9.23992881	    -12.91862821	      8.36588525	     -6.26783916	     20.09943118	     25.28660451	     -5.29035486	    -13.25264947	     -4.82425496	      5.43479635	     -8.38601595	      7.19020455	     -0.94114228	     -0.44081817	     11.56359538
